<svg xmlns="http://www.w3.org/2000/svg" width="58" height="60" viewBox="0 0 58 60">
  <metadata><?xpacket begin="﻿" id="W5M0MpCehiHzreSzNTczkc9d"?>
<x:xmpmeta xmlns:x="adobe:ns:meta/" x:xmptk="Adobe XMP Core 5.6-c138 79.159824, 2016/09/14-01:09:01        ">
   <rdf:RDF xmlns:rdf="http://www.w3.org/1999/02/22-rdf-syntax-ns#">
      <rdf:Description rdf:about=""/>
   </rdf:RDF>
</x:xmpmeta>
                                                                                                    
                                                                                                    
                                                                                                    
                                                                                                    
                                                                                                    
                                                                                                    
                                                                                                    
                                                                                                    
                                                                                                    
                                                                                                    
                                                                                                    
                                                                                                    
                                                                                                    
                                                                                                    
                                                                                                    
                                                                                                    
                                                                                                    
                                                                                                    
                                                                                                    
                                                                                                    
                           
<?xpacket end="w"?></metadata>
<defs>
    <style>
      .cls-1 {
        fill: #83b735;
        fill-rule: evenodd;
      }
    </style>
  </defs>
  <path id="wood-layout-green-chair-4" class="cls-1" d="M4624.72,2291.88a21.022,21.022,0,0,0,.28-3.38c0-8.88-5.62-16.66-14-20.96v-0.02l-0.56-.27c-0.12-.06-0.24-0.1-0.35-0.16-0.3-.14-0.6-0.27-0.9-0.4-0.19-.08-0.37-0.16-0.55-0.24q-0.735-.3-1.5-0.57c-0.12-.04-0.23-0.08-0.35-0.12-0.44-.14-0.88-0.28-1.32-0.41-0.12-.04-0.25-0.07-0.37-0.11-0.51-.14-1.02-0.27-1.54-0.39-0.04-.01-0.08-0.02-0.11-0.03-0.59-.13-1.19-0.25-1.8-0.35a0.127,0.127,0,0,0-.06-0.01c-0.54-.09-1.09-0.17-1.63-0.23-0.14-.01-0.28-0.03-0.41-0.04-0.45-.05-0.9-0.09-1.36-0.12-0.15,0-.3-0.02-0.45-0.02-0.57-.03-1.15-0.05-1.74-0.05s-1.17.02-1.75,0.05c-0.14,0-.29.01-0.44,0.02-0.46.03-.91,0.07-1.36,0.12-0.13.01-.27,0.03-0.41,0.04-0.55.07-1.09,0.14-1.63,0.23a0.127,0.127,0,0,0-.06.01c-0.61.1-1.21,0.22-1.8,0.35l-0.11.03c-0.52.12-1.03,0.25-1.54,0.39-0.12.03-.25,0.07-0.37,0.11-0.45.13-.89,0.26-1.32,0.41-0.12.04-.24,0.08-0.35,0.12q-0.765.27-1.5,0.57c-0.18.08-.36,0.16-0.55,0.24-0.3.13-.6,0.26-0.9,0.4-0.11.06-.23,0.1-0.35,0.16l-0.56.27v0.02c-8.39,4.3-14,12.08-14,20.96a21.022,21.022,0,0,0,.28,3.38v0.01c1.82,11.06,12.41,19.78,25.62,20.97a4.327,4.327,0,0,1-3.35,3.37L4577,2318.8v0.82a4.345,4.345,0,0,0,1.55,3.34,4.4,4.4,0,0,0,3.6.98,67.175,67.175,0,0,1,27.74,0,4.386,4.386,0,0,0,5.11-4.32v-0.82l-12.56-2.57a4.354,4.354,0,0,1-3.35-3.37c13.22-1.19,23.8-9.91,25.63-20.97v-0.01Zm-1.72-3.38a18.658,18.658,0,0,1-.2,2.7,40.712,40.712,0,0,1-5.21,3.32A8.035,8.035,0,0,0,4610,2289h-6.8a15.014,15.014,0,0,0,7.8-13.15v-6.05C4618.23,2273.84,4623,2280.72,4623,2288.5Zm-11.87,8.84a45.2,45.2,0,0,1-4.79,1.34c-0.07.02-.15,0.03-0.22,0.05-0.78.17-1.57,0.32-2.36,0.46h-0.05c-0.8.14-1.61,0.24-2.43,0.34l-0.36.03c-0.66.07-1.32,0.12-1.98,0.16-0.2.02-.4,0.03-0.6,0.04q-1.17.06-2.34,0.06c-0.78,0-1.57-.02-2.35-0.06-0.19-.01-0.39-0.02-0.59-0.04-0.66-.04-1.32-0.09-1.98-0.16l-0.36-.03c-0.82-.09-1.63-0.2-2.44-0.34h-0.01c-0.81-.13-1.61-0.29-2.41-0.46a1.163,1.163,0,0,0-.18-0.04,45.258,45.258,0,0,1-9.47-3.25A6.03,6.03,0,0,1,4582,2291h28a6.03,6.03,0,0,1,5.79,4.44,42.694,42.694,0,0,1-4.65,1.89ZM4583,2268.78a0.227,0.227,0,0,1,.04-0.01c0.47-.22.95-0.42,1.43-0.61,0.05-.02.11-0.04,0.16-0.06,0.44-.17.87-0.33,1.32-0.48,0.08-.03.16-0.05,0.25-0.08,0.46-.15.92-0.29,1.39-0.42l0.1-.03a30.985,30.985,0,0,1,3.18-.68l0.21-.03c0.44-.07.89-0.13,1.34-0.18,0.12-.01.25-0.03,0.38-0.04,0.4-.04.81-0.07,1.21-0.09l0.41-.03c0.52-.03,1.05-0.04,1.58-0.04s1.06,0.01,1.58.04l0.41,0.03c0.4,0.02.81,0.05,1.21,0.09,0.13,0.01.26,0.03,0.38,0.04,0.45,0.05.9,0.11,1.34,0.18l0.21,0.03a30.985,30.985,0,0,1,3.18.68l0.1,0.03c0.47,0.13.93,0.27,1.39,0.42,0.09,0.03.17,0.05,0.25,0.08q0.675,0.225,1.32.48c0.05,0.02.11,0.04,0.16,0.06,0.48,0.19.96,0.39,1.43,0.61,0.01,0,.03.01,0.04,0.01v7.07a13,13,0,1,1-26,0v-7.07Zm-2,1.02v6.05a14.994,14.994,0,0,0,7.8,13.15H4582a8.057,8.057,0,0,0-7.6,5.52,41.307,41.307,0,0,1-5.2-3.32,18.658,18.658,0,0,1-.2-2.7C4569,2280.72,4573.77,2273.84,4581,2269.8Zm16.08,43.2a6.338,6.338,0,0,0,4.96,5.19l10.83,2.21a2.417,2.417,0,0,1-.72,1.04,2.361,2.361,0,0,1-1.89.54,69.018,69.018,0,0,0-28.48-.01,2.376,2.376,0,0,1-2.65-1.57l10.82-2.21a6.349,6.349,0,0,0,4.97-5.19h2.16Zm-1.08-2c-12.57,0-23.15-7.19-26.15-16.89a42.568,42.568,0,0,0,4.18,2.48h0l0.65,0.33c0.01,0,.02.01,0.03,0.01a44.554,44.554,0,0,0,4.92,2.09,0.3,0.3,0,0,1,.1.04,47.212,47.212,0,0,0,5.17,1.5l0.12,0.03c0.82,0.18,1.63.35,2.46,0.49a2.741,2.741,0,0,0,.28.05c0.86,0.15,1.73.27,2.6,0.37,0.07,0.01.14,0.01,0.21,0.02,0.76,0.08,1.52.15,2.29,0.19,0.21,0.02.41,0.03,0.62,0.04,0.84,0.04,1.68.07,2.52,0.07s1.69-.03,2.52-0.07c0.21-.01.41-0.02,0.62-0.04,0.77-.04,1.53-0.11,2.3-0.19,0.06-.01.13-0.01,0.2-0.02,0.87-.1,1.74-0.22,2.6-0.37a2.741,2.741,0,0,0,.28-0.05c0.83-.14,1.65-0.31,2.46-0.49l0.12-.03a47.212,47.212,0,0,0,5.17-1.5,0.418,0.418,0,0,1,.1-0.04,44.554,44.554,0,0,0,4.92-2.09,0.142,0.142,0,0,0,.04-0.02l0.03-.01a41.294,41.294,0,0,0,4.79-2.79C4619.15,2303.81,4608.56,2311,4596,2311Zm-6-38a1,1,0,1,1-1,1A1,1,0,0,1,4590,2273Zm6,0a1,1,0,1,1-1,1A1,1,0,0,1,4596,2273Zm-6,6a1,1,0,1,1-1,1A1,1,0,0,1,4590,2279Zm6,0a1,1,0,1,1-1,1A1,1,0,0,1,4596,2279Zm-3-3a1,1,0,1,1-1,1A1,1,0,0,1,4593,2276Zm6,0a1,1,0,1,1-1,1A1,1,0,0,1,4599,2276Zm-6-5.85a1,1,0,1,1-1,1A1,1,0,0,1,4593,2270.15Zm6,0a1,1,0,1,1-1,1A1,1,0,0,1,4599,2270.15Zm3,2.85a1,1,0,1,1-1,1A1,1,0,0,1,4602,2273Zm0,6a1,1,0,1,1-1,1A1,1,0,0,1,4602,2279Z" transform="translate(-4567 -2264)"/>
</svg>
